<?xml version="1.0" encoding="UTF-8"?><svg id="a" xmlns="http://www.w3.org/2000/svg" viewBox="0 0 255.64 63.39"><defs><style>.b{fill:none;}.c{fill:#fff;}.d{fill:#231f20;}</style></defs><path class="c" d="M29.96,55.23c14,0,25.35-11.35,25.35-25.35S43.96,4.53,29.96,4.53,4.61,15.88,4.61,29.88s11.35,25.35,25.35,25.35"/><path class="d" d="M26.06,34.11h9.33l2.73,1.77h-12.47l-5.59,17.3c-6.18-2.4-11.9-7.95-14.3-14.19-2.56-6.05-2.56-13.65,.06-19.72,2.45-6.25,8.34-11.88,14.6-14.2,4.93-2.04,11.53-2.26,16.76-.65,6,1.72,11.66,6.02,14.96,11.63,3.68,6.16,4.72,13.98,2.48,21-1.41,4.66-4.33,9.13-8.34,12.32l-6.89-11.47,9.59,5.35c.05,0,.08-.06,.05-.12l-12.56-10.84,16.24,2.48c.05,0,.08-.03,.08-.05l-.11-.08-15.31-5.37,15.91-3.84c.05,0,.05-.05,.03-.08l-16.32,1.06,12.78-9.68c.03-.05-.08-.08-.11-.02l-14.36,7.28,7.93-13.98s0-.08-.05-.05l-10.36,12.15,1.99-15.97s-.06-.06-.11-.03l-4.76,15.5-4.17-15.97s-.08-.05-.11,0l1.15,16.56-9.84-12.8s-.06,0-.08,.03l7.44,14.17-14.06-7.69s-.08,.03-.08,.06l12.51,10.27-15.96-1.69c-.06,.03-.06,.08,0,.1l15.48,4.53-15.4,4.52s-.03,.08,0,.11l15.88-1.85-12.48,10.6s-.05,.05,0,.08l.17-.06,10-5.23,2.35-3.73h2.67l-1.85-1.31,6.18-9.92-3.65,11.72h0"/><g><g><path class="d" d="M72.11,47.17h-12.46l9.98-35.61h25.54l-2.43,8.45h-13.03l-1.67,6.06h13.03l-2.2,7.78h-13.03l-3.72,13.32Z"/><path class="d" d="M100.94,47.17h-12.32l7.3-26.02h12.32l-7.3,26.02Zm7.97-28.5h-12.31l2-7.11h12.31l-2,7.11Z"/></g><path class="d" d="M132.89,47.17h-12.08l.86-2.91c-2.43,2.05-4.92,3.53-8.88,3.53s-6.54-1.91-6.54-5.97c0-4.49,1.77-11.17,4.39-15.85,1.91-3.48,5.35-5.3,9.4-5.3,3.48,0,6.06,1.53,7.06,3.44l3.44-12.55h12.32l-9.98,35.61Zm-9.26-18.28c-1.1,0-2.2,.34-2.82,1.86-.91,2.2-1.72,4.34-1.72,6.49,0,1,.72,1.86,1.91,1.86,.95,0,1.58-.29,2.1-.62l2.48-8.55c-.43-.62-1.19-1.05-1.96-1.05Z"/><path class="d" d="M167.66,35.81h-16.99c-.33,1.38-.67,2.34-.67,3.44,0,.53,.09,1.86,1.81,1.86s2.48-.67,3.2-3.2h12.08c-1.53,7.4-10.31,9.93-15.7,9.93-7.3,0-12.98-1.05-12.98-8.07,0-3.87,1.96-10.26,4.53-13.65,3.1-4.06,8.5-5.58,13.46-5.58,7.64,0,12.6,1.57,12.6,8.07,0,1.58-.67,5.06-1.34,7.21Zm-12.32-8.73c-1.53,0-2.58,1.05-3.25,3.67h5.06c.14-.52,.33-1.34,.33-1.81,0-1.43-.86-1.86-2.15-1.86Z"/><path class="d" d="M180.04,47.17h-12.32l9.98-35.61h12.32l-9.98,35.61Z"/><g><path class="d" d="M196.31,47.17h-12.32l7.3-26.02h12.32l-7.3,26.02Zm7.97-28.5h-12.32l2-7.11h12.32l-2,7.11Z"/><path class="d" d="M226.42,21.15l1.07,5.87h-9.43l-2.77,9.88c-.24,.76-.43,1.72-.43,2.34,0,1.15,.48,1.53,2.15,1.53h2.63l-1.81,6.4h-10.98c-3.63,0-5.01-1.77-5.01-4.44,0-1.1,.14-2.29,.53-3.63l6.68-23.72h12.32l-1.62,5.78h6.68Z"/></g></g><g><path class="d" d="M59.4,51.17h3.07l-1.95,6.4h-3.06l1.95-6.4Z"/><path class="d" d="M70.11,51.17h4.49l1.15,4.27h.03l1.3-4.27h2.66l-1.97,6.39-4.3,.02-1.24-4.56h-.02l-1.36,4.55h-2.67l1.92-6.39Z"/><path class="d" d="M85.57,51.17h3.38l.59,4.02,3.09-4.03h3.13l-5.16,6.39h-3.75l-1.28-6.38Z"/><path class="d" d="M101.65,51.18h6.98l-.39,1.29h-4.02l-.39,1.32h3.76l-.38,1.23h-3.76l-.39,1.27h4.06l-.41,1.29h-7.02l1.95-6.4Z"/><path class="d" d="M131.64,52.74h-2.39l.47-1.55h7.85l-.47,1.55h-2.39l-1.46,4.82h-3.07l1.46-4.82Z"/><path class="d" d="M143.92,51.17h4.65l.22,4.27h.02l2.77-4.28h4.67l-1.94,6.4h-2.84l1.46-4.82h-.02l-3.45,4.83h-2.96l-.42-4.82h-.03l-1.46,4.81h-2.6l1.94-6.39Z"/><path class="d" d="M175.8,51.17h4.49l1.16,4.27h.03l1.3-4.27h2.66l-1.95,6.4h-4.35l-1.21-4.56h-.02l-1.39,4.55h-2.67l1.96-6.39Z"/><path class="d" d="M192.79,52.73h-2.39l.47-1.55h7.85l-.47,1.55h-2.39l-1.46,4.84h-3.07l1.47-4.83Z"/></g><g><path class="b" d="M246.96,44.47c0-.51-.48-.54-.91-.53h-.51v1.07h.51c.43,0,.91-.03,.91-.54Z"/><path class="b" d="M246.12,42.53c-1.52,0-2.75,1.23-2.75,2.75s1.23,2.75,2.75,2.75,2.75-1.23,2.75-2.75-1.23-2.75-2.75-2.75Zm.88,4.64l-.95-1.57h-.51v1.57h-.7v-3.83h1.48c.92,0,1.35,.41,1.35,1.15,0,.67-.4,.99-.92,1.05l1,1.62h-.74Z"/><path class="d" d="M246.12,41.93c-1.85,0-3.35,1.5-3.35,3.35s1.5,3.35,3.35,3.35,3.35-1.5,3.35-3.35-1.5-3.35-3.35-3.35Zm0,6.1c-1.52,0-2.75-1.23-2.75-2.75s1.23-2.75,2.75-2.75,2.75,1.23,2.75,2.75-1.23,2.75-2.75,2.75Z"/><path class="d" d="M247.46,44.59c0-.67-.39-1.04-1.22-1.04h-1.3v3.45h.6v-1.41h.46l.86,1.41h.67l-.9-1.46c.47-.06,.83-.35,.83-.95Zm-1.92,.46v-.97h.46c.39,0,.82,.02,.82,.48s-.43,.49-.82,.49h-.46Z"/></g><path d="M118.04,53.11c-.07-.07-.07-.19-.04-.29,.1-.33,.51-.54,1.15-.54,.38,0,.97,.04,1.14,.18,.18,.13,.24,.33,.17,.52h2.72c.32-1.14-.4-1.88-3.47-1.88-2.92,0-4.57,.63-5,2.02-.11,.36-.12,.81,.18,1.11,.75,.75,4.14,1.05,4.43,1.45,.06,.08,.08,.18,.04,.29-.16,.51-.88,.64-1.52,.65-.4,0-.93-.09-1.08-.25-.14-.17-.14-.42-.06-.59h-2.85c-.29,1-.41,2.03,3.55,2.03,3.32,0,4.84-.82,5.22-2.08,.19-.62,0-.96-.21-1.18-.74-.76-4.02-1.04-4.38-1.43Z"/><path d="M162.51,51.18h6.98l-.39,1.29h-4.02l-.39,1.32h3.76l-.38,1.23h-3.76l-.39,1.27h4.06l-.41,1.29h-7.02l1.95-6.4Z"/><path class="d" d="M243.04,21.15l-6.68,14.42,.19-14.42h-12.46l2.39,26.02c-.3,1.52-.81,2.38-1.76,2.81-1.05,.47-3.41,.38-4.24,.34h-.15l-1.96,7.08h8.41c4.96,0,7.4-2.49,10.93-8.02l17.95-28.21h-12.6Z"/><path d="M206.69,53.1c-.07-.07-.07-.19-.04-.29,.1-.33,.51-.54,1.15-.54,.38,0,.97,.04,1.14,.18,.18,.13,.24,.33,.17,.52h2.72c.32-1.14-.4-1.88-3.47-1.88-2.92,0-4.57,.63-5,2.02-.11,.36-.12,.81,.18,1.11,.75,.75,4.14,1.05,4.43,1.45,.06,.08,.08,.18,.04,.29-.16,.51-.88,.64-1.52,.65-.4,0-.93-.09-1.08-.25-.14-.17-.14-.42-.06-.59h-2.85c-.29,1-.41,2.03,3.55,2.03,3.32,0,4.84-.82,5.22-2.08,.19-.62,0-.96-.21-1.18-.74-.76-4.02-1.04-4.38-1.43Z"/><rect class="b" width="59.32" height="63.39"/></svg>