<?xml version="1.0" encoding="UTF-8"?>
<svg width="224px" height="59px" viewBox="0 0 224 59" version="1.1" xmlns="http://www.w3.org/2000/svg" xmlns:xlink="http://www.w3.org/1999/xlink">
    <!-- Generator: Sketch 46.2 (44496) - http://www.bohemiancoding.com/sketch -->
    <title>harris</title>
    <desc>Created with Sketch.</desc>
    <defs>
        <polygon id="path-1" points="40.3225 0.428 0.06 0.428 0.06 58.94 80.585 58.94 80.585 0.428 40.3225 0.428"></polygon>
    </defs>
    <g id="Page-1" stroke="none" stroke-width="1" fill="none" fill-rule="evenodd">
        <g id="harris">
            <g id="Group-4">
                <mask id="mask-2" fill="white">
                    <use xlink:href="#path-1"></use>
                </mask>
                <g id="Clip-2"></g>
                <path d="M3.273,59 C4.107,57.983 4.849,57.184 5.499,56.601 L67.723,0.428 L80.585,32.725 L68.724,32.725 L60.059,23.445 L65.212,23.445 L62.521,16.063 L6.098,57.181 C5.264,57.779 4.189,58.47 3.273,59" id="Fill-1" fill="#D8232A" mask="url(#mask-2)"></path>
                <polyline id="Fill-3" fill="#1A1919" mask="url(#mask-2)" points="47.599 3.885 40.542 24.966 31.947 32.725 26.099 32.725 30.188 20.508 15.935 20.508 11.846 32.725 0 32.725 9.654 3.885 21.5 3.885 17.797 14.946 32.05 14.946 35.753 3.885 47.599 3.885"></polyline>
            </g>
            <polyline id="Fill-5" fill="#1A1919" points="181.639 3.885 171.582 32.725 159.923 32.725 168.709 3.885 181.639 3.885"></polyline>
            <path d="M100.331,9.45 L92.523,32.725 L80.568,32.725 L90.331,3.885 L110.424,3.885 C115.467,3.885 121.041,4.565 122.987,7.146 C124.852,9.618 123.176,12.857 121.663,14.394 C118.309,17.8 112.438,18.595 112.438,18.595 C112.438,18.595 114.419,22.865 115.846,25.518 C117.389,28.387 120.068,32.725 120.068,32.725 L107.648,32.725 L100.61,15.901 C100.61,15.901 107.212,16.15 109.892,14.121 C111.603,12.826 111.533,11.181 110.932,10.441 C110.331,9.701 109.015,9.542 107.256,9.473 C106.261,9.434 102.994,9.438 100.331,9.45" id="Fill-6" fill="#1A1919"></path>
            <path d="M139.814,9.451 L132.007,32.725 L120.043,32.725 L129.815,3.885 L149.908,3.885 C154.95,3.885 160.525,4.565 162.471,7.146 C164.335,9.618 162.658,12.857 161.146,14.394 C157.793,17.8 151.921,18.595 151.921,18.595 C151.921,18.595 153.903,22.865 155.33,25.518 C156.872,28.387 159.923,32.725 159.923,32.725 L147.132,32.725 L140.095,15.901 C140.095,15.901 146.696,16.15 149.375,14.122 C151.086,12.826 151.017,11.181 150.415,10.441 C149.814,9.701 148.499,9.542 146.739,9.473 C145.744,9.434 142.478,9.438 139.814,9.451" id="Fill-7" fill="#1A1919"></path>
            <path d="M178.267,25.687 L175.09,31.982 C175.09,31.982 182.343,33.507 190.104,33.248 C193.058,33.149 197.673,32.993 201.814,31.67 C204.849,30.7 207.106,29.476 208.825,27.698 C210.396,26.073 211.25,24.349 211.421,22.746 C211.625,20.786 211.103,19.753 209.965,18.569 C207.299,15.796 198.928,15.188 195.269,13.841 C194.94,13.72 193.717,13.166 194.036,11.959 C194.316,10.9 195.882,9.501 201.389,9.414 C208.825,9.297 212.296,10.814 212.296,10.814 L215.271,4.736 C215.271,4.736 213.271,4.154 210.078,3.888 C208.187,3.665 206.003,3.505 203.929,3.579 C202.169,3.642 199.988,3.689 197.715,3.939 C195.429,4.19 193.184,4.576 191.04,5.183 C188.954,5.772 186.981,6.579 185.209,7.695 C181.731,9.885 179.788,14.144 181.705,16.993 C182.125,17.618 183.359,18.6 184.108,18.966 C184.938,19.372 185.925,19.726 186.981,20.041 C190.897,21.208 195.498,21.663 197.371,22.778 C199.063,23.786 198.823,25.502 196.694,26.566 C194.113,27.857 188.939,27.814 184.362,27.195 C182.125,26.894 178.267,25.687 178.267,25.687" id="Fill-8" fill="#1A1919"></path>
            <path d="M219.756,7.073 L220.475,7.073 C220.818,7.073 221.053,7.023 221.178,6.924 C221.303,6.824 221.365,6.692 221.365,6.527 C221.365,6.422 221.335,6.327 221.275,6.244 C221.215,6.16 221.131,6.098 221.024,6.057 C220.917,6.016 220.719,5.995 220.43,5.995 L219.756,5.995 L219.756,7.073 Z M219.178,9.089 L219.178,5.511 L220.418,5.511 C220.841,5.511 221.147,5.544 221.337,5.61 C221.526,5.677 221.678,5.792 221.79,5.957 C221.903,6.122 221.959,6.298 221.959,6.483 C221.959,6.745 221.864,6.974 221.675,7.168 C221.485,7.363 221.233,7.472 220.92,7.495 C221.047,7.548 221.148,7.611 221.225,7.684 C221.369,7.824 221.546,8.06 221.756,8.391 L222.193,9.089 L221.495,9.089 L221.175,8.527 C220.923,8.084 220.719,7.807 220.563,7.696 C220.457,7.615 220.302,7.574 220.098,7.573 L219.756,7.573 L219.756,9.089 L219.178,9.089 Z M220.642,4.479 C220.174,4.479 219.72,4.6 219.277,4.839 C218.836,5.078 218.489,5.42 218.24,5.865 C217.99,6.31 217.865,6.773 217.865,7.255 C217.865,7.734 217.988,8.193 218.233,8.632 C218.479,9.071 218.821,9.413 219.263,9.658 C219.703,9.904 220.162,10.026 220.642,10.026 C221.12,10.026 221.58,9.904 222.021,9.658 C222.461,9.413 222.803,9.071 223.047,8.632 C223.29,8.193 223.412,7.734 223.412,7.255 C223.412,6.773 223.288,6.31 223.04,5.865 C222.792,5.42 222.446,5.078 222.003,4.839 C221.559,4.6 221.105,4.479 220.642,4.479 Z M220.642,3.933 C221.198,3.933 221.743,4.076 222.273,4.362 C222.805,4.648 223.219,5.057 223.515,5.59 C223.812,6.122 223.959,6.677 223.959,7.255 C223.959,7.827 223.813,8.377 223.521,8.905 C223.229,9.434 222.82,9.844 222.294,10.136 C221.767,10.428 221.216,10.573 220.642,10.573 C220.066,10.573 219.516,10.428 218.988,10.136 C218.462,9.844 218.052,9.434 217.759,8.905 C217.465,8.377 217.318,7.827 217.318,7.255 C217.318,6.677 217.468,6.122 217.766,5.59 C218.063,5.057 218.478,4.648 219.009,4.362 C219.539,4.076 220.084,3.933 220.642,3.933 L220.642,3.933 Z" id="Fill-9" fill="#1A1919"></path>
        </g>
    </g>
</svg>